<svg id="visual" viewBox="0 0 960 540" width="960" height="540" xmlns="http://www.w3.org/2000/svg" xmlns:xlink="http://www.w3.org/1999/xlink" version="1.1"><rect x="0" y="0" width="960" height="540" fill="#F5730A"></rect><defs><linearGradient id="grad1_0" x1="43.8%" y1="0%" x2="100%" y2="100%"><stop offset="14.444444444444446%" stop-color="#f5730a" stop-opacity="1"></stop><stop offset="85.55555555555554%" stop-color="#f5730a" stop-opacity="1"></stop></linearGradient></defs><defs><linearGradient id="grad2_0" x1="0%" y1="0%" x2="56.3%" y2="100%"><stop offset="14.444444444444446%" stop-color="#f5730a" stop-opacity="1"></stop><stop offset="85.55555555555554%" stop-color="#f5730a" stop-opacity="1"></stop></linearGradient></defs><g transform="translate(960, 0)"><path d="M0 486C-49.1 444.4 -98.2 402.7 -159.6 385.3C-220.9 367.8 -294.5 374.5 -343.7 343.7C-392.8 312.8 -417.4 244.5 -437 181C-456.6 117.5 -471.3 58.7 -486 0L0 0Z" fill="#C62368"></path></g><g transform="translate(0, 540)"><path d="M0 -486C69.8 -486.1 139.6 -486.3 186 -449C232.4 -411.7 255.4 -337.1 285 -285C314.5 -232.9 350.7 -203.3 385.3 -159.6C419.9 -115.8 452.9 -57.9 486 0L0 0Z" fill="#C62368"></path></g></svg>