<svg id="visual" viewBox="0 0 960 540" width="960" height="540" xmlns="http://www.w3.org/2000/svg" xmlns:xlink="http://www.w3.org/1999/xlink" version="1.1"><rect x="0" y="0" width="960" height="540" fill="#FFFFFF"></rect><path d="M0 155L137 164L274 155L411 185L549 194L686 163L823 180L960 183L960 0L823 0L686 0L549 0L411 0L274 0L137 0L0 0Z" fill="#f5730a"></path><path d="M0 124L137 114L274 138L411 129L549 149L686 148L823 141L960 151L960 0L823 0L686 0L549 0L411 0L274 0L137 0L0 0Z" fill="#d15308"></path><path d="M0 112L137 94L274 81L411 93L549 103L686 85L823 85L960 90L960 0L823 0L686 0L549 0L411 0L274 0L137 0L0 0Z" fill="#ac3505"></path><path d="M0 62L137 54L274 67L411 41L549 64L686 58L823 41L960 63L960 0L823 0L686 0L549 0L411 0L274 0L137 0L0 0Z" fill="#871400"></path></svg>